<svg width="24" height="25" viewBox="0 0 24 25" fill="none" xmlns="http://www.w3.org/2000/svg">
<path fill-rule="evenodd" clip-rule="evenodd" d="M16.3102 0.827492C14.9348 0.298674 13.4736 0.0283248 12 0.0300374C5.37273 0.0300374 0 5.40277 0 12.03C0 14.058 0.502909 15.9682 1.39091 17.6417L0.985091 18.5995C0.774379 19.1142 0.589781 19.6392 0.432 20.1726C0.331598 20.5051 0.26221 20.8462 0.224727 21.1915C0.137455 22.1122 0.273818 22.8715 1.22291 23.5424C2.23091 24.2548 4.53818 23.6264 6.51818 22.7079C8.2138 23.5796 10.0934 24.033 12 24.03C18.6273 24.03 24 18.6573 24 12.03C24 10.4897 23.7098 9.01695 23.1807 7.66422C24.1473 4.84967 24.2302 2.09186 23.0716 0.944219C22.4618 0.343128 21.8073 0.163128 20.9127 0.119492L20.5636 0.109674L20.1578 0.114037L19.6255 0.146765C18.4983 0.245793 17.3851 0.474205 16.3102 0.827492ZM21.4887 2.54349C21.3818 2.43767 21.0611 2.36895 20.5898 2.36022L20.1862 2.36458C18.2771 2.44313 14.7305 3.30058 12.1669 5.83586C11.6324 6.36495 11.1436 6.90931 10.7073 7.45913L10.3898 7.87149L7.27964 7.64458L7.15091 7.64567L7.02545 7.66858C6.94399 7.69063 6.86688 7.72642 6.79745 7.7744L6.69927 7.85622L2.28436 12.2242L2.22327 12.3028L2.18727 12.3911C2.17128 12.4543 2.17212 12.5206 2.18973 12.5834C2.20734 12.6462 2.2411 12.7033 2.28764 12.7489C2.33845 12.7993 2.3993 12.8383 2.46622 12.8635C2.53314 12.8887 2.60463 12.8994 2.676 12.8951L2.78073 12.8777L2.88109 12.8373L3.86291 12.3213C4.82291 11.8359 5.50255 11.5511 5.904 11.466C6.15927 11.4115 6.36218 11.3755 6.54545 11.3613L6.72436 11.3559L6.90327 11.3679C7.14109 11.3962 7.38545 11.4748 7.72145 11.6188L7.944 11.718L8.21127 11.8489L8.33127 11.9144L8.268 12.1959C8.02582 13.4035 8.19164 14.4191 8.83745 15.0573C9.29236 15.5079 9.93818 15.7228 10.7073 15.7249L10.9691 15.7184L11.3302 15.6857C11.5875 15.6519 11.8425 15.6028 12.0938 15.5384C12.2236 15.75 12.3338 15.9551 12.4265 16.1526C12.7789 16.9097 12.8476 17.2239 12.7549 17.7933L12.6818 18.1708C12.6142 18.4806 12.4255 18.9562 12.1135 19.5988L11.9716 19.8846L11.6444 20.5162L11.2953 21.162L11.2538 21.2602C11.2294 21.3458 11.2286 21.4364 11.2515 21.5224C11.2743 21.6085 11.32 21.6867 11.3836 21.7489C11.4546 21.819 11.5501 21.8586 11.6498 21.8591L11.7447 21.8482L11.8058 21.8264L11.8625 21.7948L11.9149 21.7522L16.3309 17.3842L16.4127 17.2882C16.4859 17.1852 16.5311 17.0649 16.5436 16.9391V16.8115L16.2895 13.3839L16.7629 13.0151C17.2353 12.6333 17.7033 12.2166 18.1593 11.7649C21.6524 8.31004 21.996 3.0464 21.4887 2.54349ZM6.43636 15.4959C6.40036 15.414 6.38182 15.3704 6.35891 15.3737C5.58982 15.4719 5.34655 15.5504 4.80873 16.0828C4.116 16.7679 2.07927 21.3933 2.52 21.7053C2.96182 22.0173 7.37673 19.794 7.95164 19.2257C8.26691 18.9137 8.54945 18.6202 8.68036 17.5915C8.68255 17.574 8.63891 17.5566 8.55818 17.5217C8.34655 17.4333 7.87636 17.2359 7.284 16.6697C6.70582 16.1155 6.52255 15.6933 6.43636 15.4959ZM15.2542 8.86095C14.8885 8.49538 14.683 7.99951 14.6829 7.48242C14.6828 6.96533 14.8881 6.46938 15.2536 6.10367C15.6192 5.73796 16.1151 5.53245 16.6322 5.53235C17.1492 5.53225 17.6452 5.73756 18.0109 6.10313C18.3766 6.46869 18.5821 6.96456 18.5822 7.48165C18.5823 7.99874 18.377 8.49469 18.0115 8.8604C17.8304 9.04148 17.6155 9.18514 17.379 9.28317C17.1425 9.38119 16.889 9.43167 16.6329 9.43172C16.1158 9.43183 15.6199 9.22651 15.2542 8.86095Z" fill="white"/>
</svg>
